HIERARCHY
ROOT SpineBase
{
  OFFSET 0.000000 0.000000 0.000000
  CHANNELS 6 Xposition Yposition Zposition Zrotation Xrotation Yrotation
  JOINT SpineMid
  {
    OFFSET -0.000000 35.667550 0.000000
    CHANNELS 3 Zrotation Xrotation Yrotation
    JOINT SpineShoulder
    {
      OFFSET -0.141789 26.479987 -0.920413
      CHANNELS 3 Zrotation Xrotation Yrotation
      JOINT Neck
      {
        OFFSET -0.116219 8.755402 -0.686021
        CHANNELS 3 Zrotation Xrotation Yrotation
        JOINT Head
        {
          OFFSET 2.063360 11.980988 3.030399
          CHANNELS 3 Zrotation Xrotation Yrotation
          End Site
          {
            OFFSET 0 0 0
          }
        }
      }
      JOINT ShoulderLeft
      {
        OFFSET -10.274058 -5.662398 -1.319778
        CHANNELS 3 Zrotation Xrotation Yrotation
        JOINT ElbowLeft
        {
          OFFSET -5.291895 -25.165691 9.343467
          CHANNELS 3 Zrotation Xrotation Yrotation
          JOINT WristLeft
          {
            OFFSET 20.912724 -13.695653 11.144793
            CHANNELS 3 Zrotation Xrotation Yrotation
            JOINT HandLeft
            {
              OFFSET 5.923313 -5.496299 3.838248
              CHANNELS 3 Zrotation Xrotation Yrotation
              JOINT HandTipLeft
              {
                OFFSET -0.563806 0.045244 -0.192384
                CHANNELS 3 Zrotation Xrotation Yrotation
                End Site
                {
                  OFFSET 0 0 0
                }
              }
              JOINT ThumbLeft
              {
                OFFSET -0.461188 0.629892 -2.421764
                CHANNELS 3 Zrotation Xrotation Yrotation
                End Site
                {
                  OFFSET 0 0 0
                }
              }
            }
          }
        }
      }
      JOINT ShoulderRight
      {
        OFFSET 7.100335 -5.234237 -12.614623
        CHANNELS 3 Zrotation Xrotation Yrotation
        JOINT ElbowRight
        {
          OFFSET 3.945814 -27.802813 0.066681
          CHANNELS 3 Zrotation Xrotation Yrotation
          JOINT WristRight
          {
            OFFSET 16.047675 -8.138257 19.965570
            CHANNELS 3 Zrotation Xrotation Yrotation
            JOINT HandRight
            {
              OFFSET 5.433746 -2.814096 7.071116
              CHANNELS 3 Zrotation Xrotation Yrotation
              JOINT HandTipRight
              {
                OFFSET 2.365262 -6.036787 2.240321
                CHANNELS 3 Zrotation Xrotation Yrotation
                End Site
                {
                  OFFSET 0 0 0
                }
              }
              JOINT ThumbRight
              {
                OFFSET -4.207444 -2.081234 -1.327203
                CHANNELS 3 Zrotation Xrotation Yrotation
                End Site
                {
                  OFFSET 0 0 0
                }
              }
            }
          }
        }
      }
    }
  }
  JOINT HipLeft
  {
    OFFSET -6.871175 1.163211 -0.903335
    CHANNELS 3 Zrotation Xrotation Yrotation
    JOINT KneeLeft
    {
      OFFSET -7.618439 -33.736790 3.590797
      CHANNELS 3 Zrotation Xrotation Yrotation
      JOINT AnkleLeft
      {
        OFFSET -0.681641 -39.211708 1.093239
        CHANNELS 3 Zrotation Xrotation Yrotation
        JOINT FootLeft
        {
          OFFSET -6.325603 -2.938262 -12.258889
          CHANNELS 3 Zrotation Xrotation Yrotation
          End Site
          {
            OFFSET 0 0 0
          }
        }
      }
    }
  }
  JOINT HipRight
  {
    OFFSET 5.611710 1.343073 -6.636543
    CHANNELS 3 Zrotation Xrotation Yrotation
    JOINT KneeRight
    {
      OFFSET -3.602011 -32.094190 -3.789927
      CHANNELS 3 Zrotation Xrotation Yrotation
      JOINT AnkleRight
      {
        OFFSET -2.012245 -37.823738 -0.931915
        CHANNELS 3 Zrotation Xrotation Yrotation
        JOINT FootRight
        {
          OFFSET -6.516004 -2.902824 -12.211528
          CHANNELS 3 Zrotation Xrotation Yrotation
          End Site
          {
            OFFSET 0 0 0
          }
        }
      }
    }
  }
}
MOTION
Frames: 9
Frame Time: 0.033333
48.979938 74.954823 297.056213 0.000000 0.000000 24.668633 -0.000000 0.000000 -24.668633 -0.000000 0.000000 0.000000 -0.000000 0.000000 0.000000 0.000000 0.000000 0.000000 -0.000000 0.000000 0.000000 -0.000000 0.000000 0.000000 -0.000000 0.000000 0.000000 -0.000000 0.000000 0.000000 0.000000 0.000000 0.000000 0.000000 0.000000 0.000000 -0.000000 0.000000 0.000000 -0.000000 0.000000 0.000000 -0.000000 0.000000 0.000000 -0.000000 0.000000 0.000000 0.000000 0.000000 0.000000 0.000000 0.000000 0.000000 -0.000000 0.000000 -24.668633 -0.000000 0.000000 0.000000 -0.000000 0.000000 0.000000 0.000000 0.000000 0.000000 -0.000000 0.000000 -24.668633 -0.000000 0.000000 0.000000 -0.000000 0.000000 0.000000 0.000000 0.000000 0.000000
48.670117 74.893709 297.045863 -0.361131 -0.023783 24.731982 0.337956 -0.129486 -24.731675 -0.000000 0.000000 0.000000 -0.000000 0.000000 0.000000 0.000000 0.000000 0.000000 -0.000000 0.000000 0.000000 -0.000000 0.000000 0.000000 -0.000000 0.000000 0.000000 -0.000000 0.000000 0.000000 0.000000 0.000000 0.000000 0.000000 0.000000 0.000000 -0.000000 0.000000 0.000000 -0.000000 0.000000 0.000000 -0.000000 0.000000 0.000000 -0.000000 0.000000 0.000000 0.000000 0.000000 0.000000 0.000000 0.000000 0.000000 0.337956 -0.129486 -24.731675 -0.000000 0.000000 0.000000 -0.000000 0.000000 0.000000 0.000000 0.000000 0.000000 0.337956 -0.129486 -24.731675 -0.000000 0.000000 0.000000 -0.000000 0.000000 0.000000 0.000000 0.000000 0.000000
48.426525 74.840190 297.026291 -0.643139 -0.036849 24.794455 0.599309 -0.236254 -24.793426 -0.000000 0.000000 0.000000 -0.000000 0.000000 0.000000 0.000000 0.000000 0.000000 -0.000000 0.000000 0.000000 -0.000000 0.000000 0.000000 -0.000000 0.000000 0.000000 -0.000000 0.000000 0.000000 0.000000 0.000000 0.000000 0.000000 0.000000 0.000000 -0.000000 0.000000 0.000000 -0.000000 0.000000 0.000000 -0.000000 0.000000 0.000000 -0.000000 0.000000 0.000000 0.000000 0.000000 0.000000 0.000000 0.000000 0.000000 0.599309 -0.236254 -24.793426 -0.000000 0.000000 0.000000 -0.000000 0.000000 0.000000 0.000000 0.000000 0.000000 0.599309 -0.236254 -24.793426 -0.000000 0.000000 0.000000 -0.000000 0.000000 0.000000 0.000000 0.000000 0.000000
48.249164 74.794266 296.997498 -0.846451 -0.039243 24.858497 0.784530 -0.320215 -24.856594 -0.000000 0.000000 0.000000 -0.000000 0.000000 0.000000 0.000000 0.000000 0.000000 -0.000000 0.000000 0.000000 -0.000000 0.000000 0.000000 -0.000000 0.000000 0.000000 -0.000000 0.000000 0.000000 0.000000 0.000000 0.000000 0.000000 0.000000 0.000000 0.146326 0.974330 0.137366 0.188612 -1.631490 -0.587020 -0.025331 0.021793 0.025586 -0.318371 0.632348 0.431069 0.000000 0.000000 0.000000 0.000000 0.000000 0.000000 1.792089 -0.278299 -24.860138 -1.610695 -0.008311 -0.025525 0.714336 -0.453002 0.030615 0.000000 0.000000 0.000000 1.662611 -0.747121 -24.961742 -0.976184 0.016404 0.113466 -0.000000 0.000000 0.000000 0.000000 0.000000 0.000000
48.138033 74.755938 296.959483 -0.971411 -0.030997 24.926040 0.894002 -0.381277 -24.923328 -0.000000 0.000000 0.000000 0.327351 -1.005202 0.093446 0.000000 0.000000 0.000000 -0.000000 0.000000 0.000000 -0.000000 0.000000 0.000000 -0.000000 0.000000 0.000000 -0.000000 0.000000 0.000000 0.000000 0.000000 0.000000 0.000000 0.000000 0.000000 0.215541 1.150035 0.161534 0.153432 -1.911889 -0.726231 -0.028339 0.025538 0.031710 -0.353105 0.732314 0.540937 0.000000 0.000000 0.000000 0.000000 0.000000 0.000000 2.005247 -0.341803 -24.924660 -1.852478 0.064462 -0.033222 0.861731 -0.568085 0.038173 0.000000 0.000000 0.000000 1.898161 -0.845611 -25.043577 -1.106254 -0.004479 0.130957 -0.000000 0.000000 0.000000 0.000000 0.000000 0.000000
48.093132 74.725205 296.912247 -1.018274 -0.012129 24.998512 0.928023 -0.419307 -24.995224 -0.000000 0.000000 0.000000 0.384196 -1.273062 0.126776 0.000000 0.000000 0.000000 -0.000000 0.000000 0.000000 -0.000000 0.000000 0.000000 -0.000000 0.000000 0.000000 -0.000000 0.000000 0.000000 0.000000 0.000000 0.000000 0.000000 0.000000 0.000000 0.295160 1.249716 0.174798 0.070072 -2.058681 -0.838281 -0.028622 0.027503 0.036605 -0.351752 0.777081 0.633555 0.000000 0.000000 0.000000 0.000000 0.000000 0.000000 2.028792 -0.389836 -24.993650 -1.932030 0.164302 -0.038542 0.947297 -0.655478 0.043225 0.000000 0.000000 0.000000 1.975128 -0.868037 -25.122064 -1.138495 -0.038363 0.138222 -0.000000 0.000000 0.000000 0.000000 0.000000 0.000000
48.171341 74.685872 296.849572 -0.915479 0.024934 25.037321 0.818916 -0.410014 -25.034191 -0.000000 0.000000 0.000000 0.462593 -1.594907 0.164819 0.000000 0.000000 0.000000 -0.618683 -0.931423 -0.038708 0.618135 0.931786 0.028653 -0.000000 0.000000 0.000000 -0.000000 0.000000 0.000000 0.000000 0.000000 0.000000 0.000000 0.000000 0.000000 0.311883 0.980973 0.137252 -0.049996 -1.771722 -1.023762 -0.025588 0.032246 0.046629 -0.252165 0.754607 0.842634 0.000000 0.000000 0.000000 0.000000 0.000000 0.000000 1.639116 -0.621518 -24.973177 -1.877598 0.684255 -0.093645 1.046303 -0.837023 0.051364 0.000000 0.000000 0.000000 1.786169 -0.750440 -25.156323 -1.020167 -0.103100 0.131009 -0.000000 0.000000 0.000000 0.000000 0.000000 0.000000
48.284077 74.674466 296.782511 -0.773392 0.067566 25.140945 0.671433 -0.389726 -25.138205 -0.000000 0.000000 0.000000 0.518258 -1.923310 0.209931 0.000000 0.000000 0.000000 -0.907102 -1.599997 -0.012900 0.907095 1.600001 -0.012434 -0.000000 0.000000 0.000000 -0.000000 0.000000 0.000000 0.000000 0.000000 0.000000 0.000000 0.000000 0.000000 0.938577 1.268171 0.171656 -1.104405 -1.599108 -1.245442 0.007075 0.015030 0.051187 0.147683 0.322194 0.997343 0.000000 0.000000 0.000000 0.000000 0.000000 0.000000 0.671433 -0.389726 -25.138205 -0.980400 0.754414 -0.033996 0.980933 -0.753722 0.046903 0.000000 0.000000 0.000000 1.461510 -0.576785 -25.244111 -0.794367 -0.167785 0.111407 -0.000000 0.000000 0.000000 0.000000 0.000000 0.000000
48.446142 74.686663 296.708174 -0.574875 0.118854 25.270894 0.469129 -0.352885 -25.268853 -0.000000 0.000000 0.000000 0.530497 -2.227162 0.261231 0.000000 0.000000 0.000000 -1.463623 -2.572389 -0.034901 1.456768 3.064816 0.718311 0.000584 -0.492421 -0.748800 -0.000000 0.000000 0.000000 0.000000 0.000000 0.000000 0.000000 0.000000 0.000000 0.634104 1.159345 0.159525 -0.430156 -1.757973 -0.826329 -0.013518 0.016381 0.034695 -0.202040 0.581148 0.625594 0.000000 0.000000 0.000000 0.000000 0.000000 0.000000 0.469129 -0.352885 -25.268853 -0.816390 0.844578 -0.031429 0.816942 -0.844044 0.043464 0.000000 0.000000 0.000000 0.469129 -0.352885 -25.268853 -0.000000 0.000000 0.000000 -0.000000 0.000000 0.000000 0.000000 0.000000 0.000000
